<svg width="56" height="56" viewBox="0 0 56 56" fill="none" xmlns="http://www.w3.org/2000/svg">
<rect width="56" height="56" rx="28" fill="#FA8F54"/>
<path d="M36.0001 34.8V24.9661L37.4857 25.8575C37.9592 26.1416 38.5735 25.988 38.8576 25.5145C39.1418 25.0409 38.9882 24.4266 38.5146 24.1425L33.4927 21.1293L29.6515 18.815L29.6514 18.815C29.3722 18.6467 29.1579 18.5176 28.9763 18.4206C28.9339 18.3969 28.8909 18.3748 28.8473 18.3544C28.6962 18.2807 28.5651 18.2316 28.4305 18.2019C28.147 18.1394 27.8533 18.1394 27.5697 18.2019C27.4348 18.2316 27.3034 18.2809 27.1518 18.355C27.109 18.375 27.0667 18.3967 27.0251 18.42C26.8432 18.5171 26.6286 18.6464 26.3488 18.815L26.3488 18.815L22.5018 21.1328L17.4857 24.1425C17.0121 24.4266 16.8585 25.0409 17.1427 25.5145C17.4268 25.988 18.0411 26.1416 18.5146 25.8575L20.0001 24.9662V34.8C20.0001 35.9202 20.0001 36.4802 20.2181 36.908C20.4099 37.2844 20.7158 37.5903 21.0921 37.7821C21.52 38 22.08 38 23.2001 38L25.0001 38V32C25.0001 30.3431 26.3433 29 28.0001 29C29.657 29 31.0001 30.3431 31.0001 32V38L32.8001 38C33.9202 38 34.4803 38 34.9081 37.7821C35.2844 37.5903 35.5904 37.2844 35.7821 36.908C36.0001 36.4802 36.0001 35.9202 36.0001 34.8Z" fill="#FCFCFD"/>
</svg>
