<svg width="56" height="56" viewBox="0 0 56 56" fill="none" xmlns="http://www.w3.org/2000/svg">
<rect width="56" height="56" rx="28" fill="black" fill-opacity="0.28"/>
<path fill-rule="evenodd" clip-rule="evenodd" d="M28 38.6666C33.891 38.6666 38.6667 33.891 38.6667 28C38.6667 22.1089 33.891 17.3333 28 17.3333C22.109 17.3333 17.3333 22.1089 17.3333 28C17.3333 33.891 22.109 38.6666 28 38.6666ZM28 41.3333C35.3638 41.3333 41.3333 35.3638 41.3333 28C41.3333 20.6362 35.3638 14.6666 28 14.6666C20.6362 14.6666 14.6667 20.6362 14.6667 28C14.6667 35.3638 20.6362 41.3333 28 41.3333Z" fill="#FCFCFD"/>
<path fill-rule="evenodd" clip-rule="evenodd" d="M23.0572 23.0572C23.5779 22.5365 24.4221 22.5365 24.9428 23.0572L28 26.1143L31.0572 23.0572C31.5779 22.5365 32.4221 22.5365 32.9428 23.0572C33.4635 23.5778 33.4635 24.4221 32.9428 24.9428L29.8856 28L32.9428 31.0572C33.4635 31.5778 33.4635 32.4221 32.9428 32.9428C32.4221 33.4635 31.5779 33.4635 31.0572 32.9428L28 29.8856L24.9428 32.9428C24.4221 33.4635 23.5779 33.4635 23.0572 32.9428C22.5365 32.4221 22.5365 31.5778 23.0572 31.0572L26.1144 28L23.0572 24.9428C22.5365 24.4221 22.5365 23.5778 23.0572 23.0572Z" fill="#FCFCFD"/>
</svg>
