<svg width="56" height="56" viewBox="0 0 56 56" fill="none" xmlns="http://www.w3.org/2000/svg">
<rect width="56" height="56" rx="28" fill="#4267B2"/>
<path d="M35.3636 19H20.6364C19.7323 19 19 19.7323 19 20.6364V35.3636C19 36.2677 19.7323 37 20.6364 37H28.8182V29.6364H26.3636V27.1818H28.8182V25.8637C28.8182 23.3683 30.034 22.2727 32.1081 22.2727C33.1014 22.2727 33.6266 22.3464 33.8754 22.3799V24.7273H32.4607C31.5804 24.7273 31.2727 25.192 31.2727 26.1329V27.1818H33.8533L33.5031 29.6364H31.2727V37H35.3636C36.2677 37 37 36.2677 37 35.3636V20.6364C37 19.7323 36.2669 19 35.3636 19Z" fill="white"/>
</svg>
