<svg width="16" height="14" viewBox="0 0 16 14" fill="none" xmlns="http://www.w3.org/2000/svg">
<path fill-rule="evenodd" clip-rule="evenodd" d="M7.99385 1.78064L7.99943 1.77774L8.00525 1.78076L10.9742 3.56214L11.9994 4.17982V11.5332C11.9994 11.9286 11.9984 12.1449 11.9857 12.3004L11.9842 12.3179L11.9666 12.3195C11.8111 12.3322 11.5948 12.3332 11.1994 12.3332H4.79943C4.40406 12.3332 4.18772 12.3322 4.03228 12.3195L4.0147 12.3179L4.01317 12.3004C4.00047 12.1449 3.99943 11.9286 3.99943 11.5332V4.17984L5.02087 3.56442L7.99385 1.78064ZM4.33389 2.42169L0.989786 4.42816C0.674066 4.61759 0.571689 5.02709 0.761121 5.34282C0.950553 5.65854 1.36006 5.76091 1.67578 5.57148L2.6661 4.97729V11.5332C2.6661 12.2799 2.6661 12.6533 2.81142 12.9385C2.93925 13.1894 3.14323 13.3934 3.39411 13.5212C3.67933 13.6665 4.05269 13.6665 4.79943 13.6665H11.1994C11.9462 13.6665 12.3195 13.6665 12.6048 13.5212C12.8556 13.3934 13.0596 13.1894 13.1874 12.9385C13.3328 12.6533 13.3328 12.2799 13.3328 11.5332V4.97727L14.3231 5.57148C14.6388 5.76091 15.0483 5.65854 15.2378 5.34282C15.4272 5.02709 15.3248 4.61759 15.0091 4.42816L11.6612 2.41939L9.10037 0.876531C8.91419 0.764358 8.77132 0.678278 8.65023 0.613549C8.62197 0.597742 8.59328 0.58304 8.56422 0.569443C8.46345 0.52027 8.37611 0.48754 8.28637 0.467764C8.09734 0.42611 7.90152 0.42611 7.71249 0.467765C7.62252 0.487592 7.53496 0.520442 7.43386 0.569828C7.40532 0.583202 7.37714 0.597641 7.34939 0.613146C7.22814 0.67792 7.08506 0.764124 6.8985 0.87653L4.33389 2.42169Z" fill="#777E91"/>
</svg>
