<svg width="56" height="56" viewBox="0 0 56 56" fill="none" xmlns="http://www.w3.org/2000/svg">
<rect width="56" height="56" rx="28" fill="url(#paint0_linear)"/>
<path d="M31.5714 28.1429C31.5714 29.8739 30.1596 31.2857 28.4286 31.2857C26.6975 31.2857 25.2857 29.8739 25.2857 28.1429C25.2857 26.4118 26.6975 25 28.4286 25C30.1596 25 31.5714 26.4118 31.5714 28.1429ZM33.2656 28.1429C33.2656 25.4665 31.1049 23.3058 28.4286 23.3058C25.7522 23.3058 23.5915 25.4665 23.5915 28.1429C23.5915 30.8192 25.7522 32.9799 28.4286 32.9799C31.1049 32.9799 33.2656 30.8192 33.2656 28.1429ZM34.5915 23.1094C34.5915 22.4833 34.0882 21.9799 33.4621 21.9799C32.8359 21.9799 32.3326 22.4833 32.3326 23.1094C32.3326 23.7355 32.8359 24.2388 33.4621 24.2388C34.0882 24.2388 34.5915 23.7355 34.5915 23.1094ZM28.4286 20.4085C29.8036 20.4085 32.75 20.298 33.99 20.7891C34.4196 20.9609 34.7388 21.1696 35.0703 21.5011C35.4018 21.8326 35.6105 22.1518 35.7824 22.5815C36.2734 23.8214 36.1629 26.7679 36.1629 28.1429C36.1629 29.5179 36.2734 32.4643 35.7824 33.7042C35.6105 34.1339 35.4018 34.4531 35.0703 34.7846C34.7388 35.1161 34.4196 35.3248 33.99 35.4967C32.75 35.9877 29.8036 35.8772 28.4286 35.8772C27.0536 35.8772 24.1071 35.9877 22.8672 35.4967C22.4375 35.3248 22.1183 35.1161 21.7868 34.7846C21.4554 34.4531 21.2467 34.1339 21.0748 33.7042C20.5837 32.4643 20.6942 29.5179 20.6942 28.1429C20.6942 26.7679 20.5837 23.8214 21.0748 22.5815C21.2467 22.1518 21.4554 21.8326 21.7868 21.5011C22.1183 21.1696 22.4375 20.9609 22.8672 20.7891C24.1071 20.298 27.0536 20.4085 28.4286 20.4085ZM37.8571 28.1429C37.8571 26.8415 37.8694 25.5525 37.7958 24.2511C37.7221 22.7411 37.3783 21.4029 36.2734 20.298C35.1685 19.1931 33.8304 18.8493 32.3203 18.7757C31.019 18.702 29.7299 18.7143 28.4286 18.7143C27.1272 18.7143 25.8382 18.702 24.5368 18.7757C23.0268 18.8493 21.6886 19.1931 20.5837 20.298C19.4788 21.4029 19.135 22.7411 19.0614 24.2511C18.9877 25.5525 19 26.8415 19 28.1429C19 29.4442 18.9877 30.7333 19.0614 32.0346C19.135 33.5446 19.4788 34.8828 20.5837 35.9877C21.6886 37.0926 23.0268 37.4364 24.5368 37.51C25.8382 37.5837 27.1272 37.5714 28.4286 37.5714C29.7299 37.5714 31.019 37.5837 32.3203 37.51C33.8304 37.4364 35.1685 37.0926 36.2734 35.9877C37.3783 34.8828 37.7221 33.5446 37.7958 32.0346C37.8694 30.7333 37.8571 29.4442 37.8571 28.1429Z" fill="#FCFCFD"/>
<defs>
<linearGradient id="paint0_linear" x1="-17.5" y1="-12" x2="123" y2="94.5" gradientUnits="userSpaceOnUse">
<stop offset="0.248415" stop-color="#BC2A8D"/>
<stop offset="0.6076" stop-color="#FBAD50"/>
<stop offset="0.79911" stop-color="#FCCC63"/>
</linearGradient>
</defs>
</svg>
