<svg width="56" height="56" viewBox="0 0 56 56" fill="none" xmlns="http://www.w3.org/2000/svg">
<rect width="56" height="56" rx="28" fill="#1DA1F2"/>
<path d="M38 21.9238C37.2639 22.2507 36.4731 22.4707 35.6432 22.5699C36.4908 22.0622 37.1408 21.2584 37.4469 20.3C36.6547 20.77 35.7762 21.1115 34.8409 21.2961C34.0925 20.4984 33.0263 20 31.8464 20C29.5803 20 27.7435 21.8376 27.7435 24.1029C27.7435 24.4244 27.7804 24.7383 27.8496 25.0375C24.4398 24.8667 21.4168 23.233 19.3923 20.75C19.04 21.3561 18.8377 22.0607 18.8377 22.8137C18.8377 24.2368 19.5615 25.4929 20.6622 26.2282C19.9899 26.2067 19.3569 26.0221 18.8038 25.7152C18.8038 25.7329 18.8038 25.749 18.8038 25.7667C18.8038 27.7551 20.2176 29.4135 22.0952 29.7896C21.7514 29.8835 21.3883 29.9335 21.0137 29.9335C20.7499 29.9335 20.4922 29.9073 20.2422 29.8604C20.7645 31.4903 22.2798 32.6772 24.0752 32.7103C22.6714 33.811 20.9022 34.4671 18.9792 34.4671C18.6484 34.4671 18.3215 34.4479 18 34.4094C19.8161 35.5732 21.9722 36.2525 24.2898 36.2525C31.8372 36.2525 35.9632 30.0004 35.9632 24.5783C35.9632 24.4006 35.9593 24.2237 35.9516 24.0475C36.7539 23.4683 37.45 22.746 38 21.9238Z" fill="white"/>
</svg>
