<svg width="56" height="56" viewBox="0 0 56 56" fill="none" xmlns="http://www.w3.org/2000/svg">
<rect width="56" height="56" rx="28" fill="#58C27D"/>
<path fill-rule="evenodd" clip-rule="evenodd" d="M34.818 30.1248C34.2016 29.4101 33.1428 29.4469 32.3149 29.9001C31.0338 30.6013 29.5635 31 28 31C26.4365 31 24.9662 30.6013 23.6851 29.9001C22.8572 29.4469 21.7984 29.4101 21.182 30.1248C19.8222 31.7014 19 33.7547 19 36V37C19 38.1045 19.8954 39 21 39H35C36.1046 39 37 38.1045 37 37V36C37 33.7547 36.1778 31.7014 34.818 30.1248Z" fill="#FCFCFD"/>
<path d="M33 22C33 24.7614 30.7614 27 28 27C25.2386 27 23 24.7614 23 22C23 19.2386 25.2386 17 28 17C30.7614 17 33 19.2386 33 22Z" fill="#FCFCFD"/>
</svg>
